{
  "accessors": [
    {
      "bufferView": 2,
      "componentType": 5126,
      "count": 9158,
      "max": [
        29.79640007019043,
        6.4885001182556152,
        96.800102233886719
      ],
      "min": [
        -29.800800323486328,
        -11.362799644470215,
        0.015399999916553497
      ],
      "type": "VEC3"
    },
    {
      "bufferView": 2,
      "byteOffset": 109896,
      "componentType": 5126,
      "count": 9158,
      "max": [
        0.99982208013534546,
        0.99938559532165527,
        1
      ],
      "min": [
        -0.99982208013534546,
        -0.99996465444564819,
        -1
      ],
      "type": "VEC3"
    },
    {
      "bufferView": 3,
      "componentType": 5126,
      "count": 9158,
      "max": [
        1,
        0.99999874830245972,
        0.99921995401382446,
        1
      ],
      "min": [
        -1,
        -0.99999129772186279,
        -0.99954038858413696,
        -1
      ],
      "type": "VEC4"
    },
    {
      "bufferView": 1,
      "componentType": 5126,
      "count": 9158,
      "max": [
        0.99320000410079956,
        1.9878000020980835
      ],
      "min": [
        0,
        1
      ],
      "type": "VEC2"
    },
    {
      "bufferView": 0,
      "componentType": 5125,
      "count": 31773,
      "max": [
        9157
      ],
      "min": [
        0
      ],
      "type": "SCALAR"
    }
  ],
  "asset": {
    "extras": {
      "author": "hwk10037 (https://sketchfab.com/hwk10037)",
      "license": "CC-BY-4.0 (http://creativecommons.org/licenses/by/4.0/)",
      "source": "https://sketchfab.com/3d-models/black-panther-civil-war-bb1e76b71d0341099ebe77bab32c45a0",
      "title": "Black Panther - Civil War"
    },
    "generator": "Sketchfab-9.55.0",
    "version": "2.0"
  },
  "bufferViews": [
    {
      "buffer": 0,
      "byteLength": 127092,
      "byteOffset": 0,
      "name": "floatBufferViews",
      "target": 34963
    },
    {
      "buffer": 0,
      "byteLength": 73264,
      "byteOffset": 127092,
      "byteStride": 8,
      "name": "floatBufferViews",
      "target": 34962
    },
    {
      "buffer": 0,
      "byteLength": 219792,
      "byteOffset": 200356,
      "byteStride": 12,
      "name": "floatBufferViews",
      "target": 34962
    },
    {
      "buffer": 0,
      "byteLength": 146528,
      "byteOffset": 420148,
      "byteStride": 16,
      "name": "floatBufferViews",
      "target": 34962
    }
  ],
  "buffers": [
    {
      "byteLength": 566676,
      "uri": "scene.bin"
    }
  ],
  "images": [
    {
      "uri": "textures/Material__25_baseColor.png"
    },
    {
      "uri": "textures/Material__25_normal.png"
    }
  ],
  "materials": [
    {
      "doubleSided": true,
      "name": "Material__25",
      "normalTexture": {
        "index": 1,
        "scale": 1,
        "texCoord": 0
      },
      "pbrMetallicRoughness": {
        "baseColorFactor": [
          1,
          1,
          1,
          1
        ],
        "baseColorTexture": {
          "index": 0,
          "texCoord": 0
        },
        "metallicFactor": 0,
        "roughnessFactor": 0.24491697523545472
      }
    }
  ],
  "meshes": [
    {
      "primitives": [
        {
          "attributes": {
            "NORMAL": 1,
            "POSITION": 0,
            "TANGENT": 2,
            "TEXCOORD_0": 3
          },
          "indices": 4,
          "material": 0,
          "mode": 4
        }
      ]
    }
  ],
  "nodes": [
    {
      "children": [
        1
      ],
      "name": "RootNode (gltf orientation matrix)",
      "rotation": [
        -0.70710678118654746,
        -0,
        -0,
        0.70710678118654757
      ]
    },
    {
      "children": [
        2
      ],
      "name": "RootNode (model correction matrix)"
    },
    {
      "children": [
        3
      ],
      "name": "Black Panther Civil War.obj.cleaner.materialmerger.gles"
    },
    {
      "mesh": 0,
      "name": ""
    }
  ],
  "samplers": [
    {
      "magFilter": 9729,
      "minFilter": 9987,
      "wrapS": 10497,
      "wrapT": 10497
    }
  ],
  "scene": 0,
  "scenes": [
    {
      "name": "OSG_Scene",
      "nodes": [
        0
      ]
    }
  ],
  "textures": [
    {
      "sampler": 0,
      "source": 0
    },
    {
      "sampler": 0,
      "source": 1
    }
  ]
}

